<svg xmlns="http://www.w3.org/2000/svg" xmlns:xlink="http://www.w3.org/1999/xlink" width="500" zoomAndPan="magnify" viewBox="0 0 375 374.999991" height="500" preserveAspectRatio="xMidYMid meet" version="1.0"><defs><g/><clipPath id="d6f38987f5"><path d="M 7.023438 135.796875 L 367.757812 135.796875 L 367.757812 227.296875 L 7.023438 227.296875 Z M 7.023438 135.796875 " clip-rule="nonzero"/></clipPath><clipPath id="fa421114d6"><path d="M 111.429688 171.722656 L 263.625 171.722656 L 263.625 203.273438 L 111.429688 203.273438 Z M 111.429688 171.722656 " clip-rule="nonzero"/></clipPath><clipPath id="1dc4b111cb"><path d="M 263.570312 173.972656 L 263.570312 201.023438 C 263.570312 201.617188 263.332031 202.191406 262.910156 202.613281 C 262.488281 203.035156 261.917969 203.273438 261.320312 203.273438 L 113.679688 203.273438 C 113.082031 203.273438 112.511719 203.035156 112.089844 202.613281 C 111.667969 202.191406 111.429688 201.617188 111.429688 201.023438 L 111.429688 173.972656 C 111.429688 173.378906 111.667969 172.804688 112.089844 172.382812 C 112.511719 171.960938 113.082031 171.722656 113.679688 171.722656 L 261.320312 171.722656 C 261.917969 171.722656 262.488281 171.960938 262.910156 172.382812 C 263.332031 172.804688 263.570312 173.378906 263.570312 173.972656 Z M 263.570312 173.972656 " clip-rule="nonzero"/></clipPath><clipPath id="578e39387c"><path d="M 0.429688 0.722656 L 152.625 0.722656 L 152.625 32.273438 L 0.429688 32.273438 Z M 0.429688 0.722656 " clip-rule="nonzero"/></clipPath><clipPath id="533f2f785f"><path d="M 152.570312 2.972656 L 152.570312 30.023438 C 152.570312 30.617188 152.332031 31.191406 151.910156 31.613281 C 151.488281 32.035156 150.917969 32.273438 150.320312 32.273438 L 2.679688 32.273438 C 2.082031 32.273438 1.511719 32.035156 1.089844 31.613281 C 0.667969 31.191406 0.429688 30.617188 0.429688 30.023438 L 0.429688 2.972656 C 0.429688 2.378906 0.667969 1.804688 1.089844 1.382812 C 1.511719 0.960938 2.082031 0.722656 2.679688 0.722656 L 150.320312 0.722656 C 150.917969 0.722656 151.488281 0.960938 151.910156 1.382812 C 152.332031 1.804688 152.570312 2.378906 152.570312 2.972656 Z M 152.570312 2.972656 " clip-rule="nonzero"/></clipPath><clipPath id="360b5c0fa8"><rect x="0" width="153" y="0" height="33"/></clipPath><clipPath id="4c44c8cc51"><path d="M 111.429688 171.722656 L 263.679688 171.722656 L 263.679688 203.222656 L 111.429688 203.222656 Z M 111.429688 171.722656 " clip-rule="nonzero"/></clipPath><clipPath id="fcc0d887ea"><path d="M 263.5625 173.972656 L 263.5625 201.019531 C 263.5625 201.617188 263.324219 202.191406 262.902344 202.613281 C 262.480469 203.035156 261.910156 203.269531 261.3125 203.269531 L 113.679688 203.269531 C 113.082031 203.269531 112.511719 203.035156 112.089844 202.613281 C 111.667969 202.191406 111.429688 201.617188 111.429688 201.019531 L 111.429688 173.972656 C 111.429688 173.378906 111.667969 172.804688 112.089844 172.382812 C 112.511719 171.960938 113.082031 171.722656 113.679688 171.722656 L 261.3125 171.722656 C 261.910156 171.722656 262.480469 171.960938 262.902344 172.382812 C 263.324219 172.804688 263.5625 173.378906 263.5625 173.972656 Z M 263.5625 173.972656 " clip-rule="nonzero"/></clipPath></defs><rect x="-37.5" width="450" fill="#ffffff" y="-37.499999" height="449.999989" fill-opacity="1"/><rect x="-37.5" width="450" fill="#000000" y="-37.499999" height="449.999989" fill-opacity="1"/><g clip-path="url(#d6f38987f5)"><path stroke-linecap="butt" transform="matrix(0.75, 0, 0, 0.75, 7.024157, 135.798039)" fill="none" stroke-linejoin="miter" d="M -0.000958692 -0.00155211 L 481.264667 -0.00155211 L 481.264667 122.264073 L -0.000958692 122.264073 Z M -0.000958692 -0.00155211 " stroke="#ffffff" stroke-width="2" stroke-opacity="1" stroke-miterlimit="4"/></g><g fill="#ffffff" fill-opacity="1"><g transform="translate(7.038666, 220.5144)"><g><path d="M 0 -78.59375 L 34.609375 -78.59375 L 34.609375 -77.90625 C 33.140625 -76.800781 32.140625 -75.164062 31.609375 -73 C 31.078125 -70.84375 30.867188 -68.394531 30.984375 -65.65625 C 31.097656 -62.925781 31.40625 -60.132812 31.90625 -57.28125 C 32.414062 -54.4375 32.976562 -51.757812 33.59375 -49.25 C 34.21875 -46.75 34.738281 -44.648438 35.15625 -42.953125 C 35.988281 -39.734375 36.710938 -36.867188 37.328125 -34.359375 C 37.953125 -31.859375 38.550781 -29.492188 39.125 -27.265625 C 39.695312 -25.035156 40.269531 -22.75 40.84375 -20.40625 C 41.414062 -18.0625 42.054688 -15.460938 42.765625 -12.609375 C 43.484375 -9.765625 44.328125 -6.476562 45.296875 -2.75 C 45.929688 -5.507812 46.707031 -8.75 47.625 -12.46875 C 48.550781 -16.195312 49.539062 -20.234375 50.59375 -24.578125 C 51.65625 -28.921875 52.691406 -33.367188 53.703125 -37.921875 C 52.878906 -41.128906 52.03125 -44.46875 51.15625 -47.9375 C 50.28125 -51.414062 49.335938 -55.148438 48.328125 -59.140625 C 47.867188 -60.984375 47.335938 -62.984375 46.734375 -65.140625 C 46.140625 -67.304688 45.484375 -69.351562 44.765625 -71.28125 C 44.054688 -73.207031 43.300781 -74.789062 42.5 -76.03125 C 41.695312 -77.28125 40.859375 -77.90625 39.984375 -77.90625 L 39.984375 -78.59375 L 74.59375 -78.59375 L 74.59375 -77.90625 C 73.125 -76.800781 72.125 -75.164062 71.59375 -73 C 71.0625 -70.84375 70.851562 -68.394531 70.96875 -65.65625 C 71.082031 -62.925781 71.390625 -60.132812 71.890625 -57.28125 C 72.398438 -54.4375 72.960938 -51.757812 73.578125 -49.25 C 74.203125 -46.75 74.722656 -44.648438 75.140625 -42.953125 C 75.960938 -39.734375 76.6875 -36.859375 77.3125 -34.328125 C 77.9375 -31.804688 78.523438 -29.40625 79.078125 -27.125 C 79.628906 -24.851562 80.191406 -22.53125 80.765625 -20.15625 C 81.335938 -17.789062 81.976562 -15.171875 82.6875 -12.296875 C 83.40625 -9.429688 84.242188 -6.132812 85.203125 -2.40625 C 85.804688 -4.976562 86.484375 -8.007812 87.234375 -11.5 C 87.992188 -15 88.738281 -18.78125 89.46875 -22.84375 C 90.207031 -26.914062 90.804688 -31.097656 91.265625 -35.390625 C 91.734375 -39.691406 91.96875 -43.941406 91.96875 -48.140625 C 91.96875 -52.347656 91.632812 -56.347656 90.96875 -60.140625 C 90.300781 -63.929688 89.1875 -67.351562 87.625 -70.40625 C 86.0625 -73.46875 83.945312 -75.96875 81.28125 -77.90625 L 81.28125 -78.59375 L 109.265625 -78.59375 L 109.265625 -77.90625 C 108.390625 -77.90625 107.550781 -77.28125 106.75 -76.03125 C 105.945312 -74.789062 105.1875 -73.207031 104.46875 -71.28125 C 103.757812 -69.351562 103.101562 -67.304688 102.5 -65.140625 C 101.90625 -62.984375 101.378906 -60.984375 100.921875 -59.140625 C 99.773438 -54.546875 98.695312 -50.269531 97.6875 -46.3125 C 96.675781 -42.363281 95.722656 -38.585938 94.828125 -34.984375 C 93.929688 -31.378906 93.035156 -27.769531 92.140625 -24.15625 C 91.242188 -20.550781 90.300781 -16.785156 89.3125 -12.859375 C 88.320312 -8.929688 87.226562 -4.644531 86.03125 0 L 63.21875 0 C 62.113281 -4.5 61.066406 -8.664062 60.078125 -12.5 C 59.085938 -16.34375 58.15625 -20.019531 57.28125 -23.53125 C 56.414062 -27.050781 55.546875 -30.582031 54.671875 -34.125 C 53.796875 -30.582031 52.910156 -27.050781 52.015625 -23.53125 C 51.117188 -20.019531 50.1875 -16.34375 49.21875 -12.5 C 48.257812 -8.664062 47.203125 -4.5 46.046875 0 L 23.234375 0 C 22.085938 -4.59375 21.003906 -8.863281 19.984375 -12.8125 C 18.972656 -16.769531 18.019531 -20.550781 17.125 -24.15625 C 16.226562 -27.769531 15.332031 -31.378906 14.4375 -34.984375 C 13.539062 -38.585938 12.597656 -42.363281 11.609375 -46.3125 C 10.628906 -50.269531 9.539062 -54.546875 8.34375 -59.140625 C 7.882812 -60.984375 7.351562 -62.984375 6.75 -65.140625 C 6.15625 -67.304688 5.5 -69.351562 4.78125 -71.28125 C 4.070312 -73.207031 3.316406 -74.789062 2.515625 -76.03125 C 1.710938 -77.28125 0.875 -77.90625 0 -77.90625 Z M 0 -78.59375 "/></g></g></g><g fill="#ffffff" fill-opacity="1"><g transform="translate(114.224114, 220.5144)"><g><path d="M 0 0 L 0 -0.6875 C 0.875 -0.6875 1.710938 -1.304688 2.515625 -2.546875 C 3.316406 -3.785156 4.070312 -5.367188 4.78125 -7.296875 C 5.5 -9.234375 6.15625 -11.28125 6.75 -13.4375 C 7.351562 -15.601562 7.882812 -17.601562 8.34375 -19.4375 C 9.539062 -24.082031 10.628906 -28.367188 11.609375 -32.296875 C 12.597656 -36.222656 13.539062 -39.988281 14.4375 -43.59375 C 15.332031 -47.207031 16.226562 -50.816406 17.125 -54.421875 C 18.019531 -58.035156 18.972656 -61.816406 19.984375 -65.765625 C 21.003906 -69.710938 22.085938 -73.988281 23.234375 -78.59375 L 46.046875 -78.59375 C 47.242188 -73.988281 48.335938 -69.710938 49.328125 -65.765625 C 50.316406 -61.816406 51.269531 -58.035156 52.1875 -54.421875 C 53.101562 -50.816406 54.019531 -47.207031 54.9375 -43.59375 C 55.863281 -39.988281 56.804688 -36.222656 57.765625 -32.296875 C 58.734375 -28.367188 59.789062 -24.082031 60.9375 -19.4375 C 61.394531 -17.601562 61.921875 -15.601562 62.515625 -13.4375 C 63.117188 -11.28125 63.773438 -9.234375 64.484375 -7.296875 C 65.203125 -5.367188 65.960938 -3.785156 66.765625 -2.546875 C 67.566406 -1.304688 68.40625 -0.6875 69.28125 -0.6875 L 69.28125 0 L 34.671875 0 L 34.671875 -0.6875 C 36.367188 -1.976562 37.457031 -3.835938 37.9375 -6.265625 C 38.425781 -8.703125 38.546875 -11.472656 38.296875 -14.578125 C 38.046875 -17.679688 37.570312 -20.84375 36.875 -24.0625 L 17.4375 -24.0625 C 17.894531 -18.726562 18.960938 -14.082031 20.640625 -10.125 C 22.316406 -6.175781 24.765625 -3.03125 27.984375 -0.6875 L 27.984375 0 Z M 23.859375 -76.25 C 21.554688 -66.175781 19.796875 -56.863281 18.578125 -48.3125 C 17.359375 -39.769531 16.957031 -32.144531 17.375 -25.4375 L 36.609375 -25.4375 C 36.191406 -27.226562 35.765625 -28.984375 35.328125 -30.703125 C 34.890625 -32.429688 34.488281 -34.078125 34.125 -35.640625 C 33.300781 -38.859375 32.566406 -41.726562 31.921875 -44.25 C 31.273438 -46.78125 30.664062 -49.179688 30.09375 -51.453125 C 29.519531 -53.734375 28.929688 -56.066406 28.328125 -58.453125 C 27.734375 -60.847656 27.078125 -63.46875 26.359375 -66.3125 C 25.648438 -69.164062 24.816406 -72.476562 23.859375 -76.25 Z M 23.859375 -76.25 "/></g></g></g><g fill="#ffffff" fill-opacity="1"><g transform="translate(181.430329, 220.5144)"><g><path d="M 1.71875 -52.046875 L 1.71875 -78.59375 L 61.421875 -78.59375 L 61.421875 -52.046875 L 60.734375 -52.046875 C 60.734375 -54.023438 60.421875 -56.148438 59.796875 -58.421875 C 59.179688 -60.703125 58.3125 -62.957031 57.1875 -65.1875 C 56.0625 -67.414062 54.75 -69.4375 53.25 -71.25 C 51.757812 -73.0625 50.140625 -74.503906 48.390625 -75.578125 C 46.648438 -76.660156 44.835938 -77.203125 42.953125 -77.203125 L 42.265625 -77.203125 L 42.265625 -9.65625 C 42.265625 -7.125 42.609375 -5.097656 43.296875 -3.578125 C 43.984375 -2.066406 45.128906 -1.101562 46.734375 -0.6875 L 46.734375 0 L 15.71875 0 L 15.71875 -0.6875 C 17.320312 -1.101562 18.46875 -2.066406 19.15625 -3.578125 C 19.851562 -5.097656 20.203125 -7.125 20.203125 -9.65625 L 20.203125 -77.203125 C 18.359375 -77.203125 16.550781 -76.660156 14.78125 -75.578125 C 13.019531 -74.503906 11.390625 -73.0625 9.890625 -71.25 C 8.398438 -69.4375 7.09375 -67.414062 5.96875 -65.1875 C 4.84375 -62.957031 3.96875 -60.703125 3.34375 -58.421875 C 2.71875 -56.148438 2.40625 -54.023438 2.40625 -52.046875 Z M 1.71875 -52.046875 "/></g></g></g><g fill="#ffffff" fill-opacity="1"><g transform="translate(242.501801, 220.5144)"><g><path d="M 57.015625 0 L 1.71875 0 L 1.71875 -0.6875 C 3.332031 -1.101562 4.484375 -2.066406 5.171875 -3.578125 C 5.859375 -5.097656 6.203125 -7.125 6.203125 -9.65625 L 6.203125 -68.9375 C 6.203125 -71.507812 5.859375 -73.539062 5.171875 -75.03125 C 4.484375 -76.53125 3.332031 -77.488281 1.71875 -77.90625 L 1.71875 -78.59375 L 57.015625 -78.59375 L 57.015625 -54.875 L 56.328125 -54.875 C 56.328125 -56.394531 55.945312 -58.117188 55.1875 -60.046875 C 54.425781 -61.972656 53.332031 -63.945312 51.90625 -65.96875 C 50.476562 -67.988281 48.800781 -69.835938 46.875 -71.515625 C 44.945312 -73.191406 42.785156 -74.554688 40.390625 -75.609375 C 38.003906 -76.671875 35.457031 -77.203125 32.75 -77.203125 L 28.265625 -77.203125 L 28.265625 -42.671875 L 30.953125 -42.671875 C 32.648438 -42.671875 34.382812 -43.023438 36.15625 -43.734375 C 37.925781 -44.453125 39.582031 -45.375 41.125 -46.5 C 42.664062 -47.625 43.953125 -48.875 44.984375 -50.25 C 46.015625 -51.632812 46.644531 -52.96875 46.875 -54.25 L 47.5625 -54.25 L 47.5625 -29.71875 L 46.875 -29.71875 C 46.644531 -31.050781 46.015625 -32.394531 44.984375 -33.75 C 43.953125 -35.101562 42.664062 -36.34375 41.125 -37.46875 C 39.582031 -38.59375 37.925781 -39.507812 36.15625 -40.21875 C 34.382812 -40.9375 32.648438 -41.296875 30.953125 -41.296875 L 28.265625 -41.296875 L 28.265625 -1.375 L 32.75 -1.375 C 35.457031 -1.375 38.003906 -1.898438 40.390625 -2.953125 C 42.785156 -4.015625 44.945312 -5.382812 46.875 -7.0625 C 48.800781 -8.738281 50.476562 -10.585938 51.90625 -12.609375 C 53.332031 -14.640625 54.425781 -16.617188 55.1875 -18.546875 C 55.945312 -20.472656 56.328125 -22.195312 56.328125 -23.71875 L 57.015625 -23.71875 Z M 57.015625 0 "/></g></g></g><g fill="#ffffff" fill-opacity="1"><g transform="translate(299.161747, 220.5144)"><g><path d="M 1.71875 -77.90625 L 1.71875 -78.59375 L 41.5 -78.59375 C 46.1875 -78.59375 50.09375 -77.773438 53.21875 -76.140625 C 56.34375 -74.503906 58.6875 -72.332031 60.25 -69.625 C 61.8125 -66.914062 62.59375 -63.929688 62.59375 -60.671875 C 62.59375 -57.265625 61.957031 -54.4375 60.6875 -52.1875 C 59.425781 -49.9375 57.671875 -48.164062 55.421875 -46.875 C 53.171875 -45.59375 50.5625 -44.675781 47.59375 -44.125 C 44.632812 -43.570312 41.429688 -43.296875 37.984375 -43.296875 C 41.929688 -42.460938 45.15625 -41.207031 47.65625 -39.53125 C 50.164062 -37.851562 52.179688 -35.898438 53.703125 -33.671875 C 55.222656 -31.441406 56.40625 -29.070312 57.25 -26.5625 C 58.101562 -24.0625 58.804688 -21.554688 59.359375 -19.046875 C 59.910156 -16.546875 60.492188 -14.203125 61.109375 -12.015625 C 61.734375 -9.835938 62.582031 -7.941406 63.65625 -6.328125 C 64.738281 -4.722656 66.222656 -3.578125 68.109375 -2.890625 C 68.109375 -2.890625 67.957031 -2.679688 67.65625 -2.265625 C 67.363281 -1.859375 66.835938 -1.367188 66.078125 -0.796875 C 65.316406 -0.222656 64.242188 0.269531 62.859375 0.6875 C 61.484375 1.101562 59.71875 1.3125 57.5625 1.3125 C 53.238281 1.3125 49.707031 0.691406 46.96875 -0.546875 C 44.238281 -1.785156 42.125 -3.453125 40.625 -5.546875 C 39.132812 -7.640625 38.066406 -9.984375 37.421875 -12.578125 C 36.785156 -15.171875 36.375 -17.867188 36.1875 -20.671875 C 36.007812 -23.484375 35.875 -26.1875 35.78125 -28.78125 C 35.6875 -31.375 35.453125 -33.71875 35.078125 -35.8125 C 34.710938 -37.90625 34.015625 -39.570312 32.984375 -40.8125 C 31.953125 -42.050781 30.378906 -42.671875 28.265625 -42.671875 L 28.265625 -9.65625 C 28.265625 -7.125 28.609375 -5.097656 29.296875 -3.578125 C 29.984375 -2.066406 31.132812 -1.101562 32.75 -0.6875 L 32.75 0 L 1.71875 0 L 1.71875 -0.6875 C 3.332031 -1.101562 4.484375 -2.066406 5.171875 -3.578125 C 5.859375 -5.097656 6.203125 -7.125 6.203125 -9.65625 L 6.203125 -68.9375 C 6.203125 -71.507812 5.859375 -73.539062 5.171875 -75.03125 C 4.484375 -76.53125 3.332031 -77.488281 1.71875 -77.90625 Z M 29.640625 -77.6875 L 28.265625 -77.6875 L 28.265625 -44.046875 L 30.75 -44.046875 C 32.488281 -44.046875 34.101562 -44.570312 35.59375 -45.625 C 37.09375 -46.6875 38.289062 -48.484375 39.1875 -51.015625 C 40.082031 -53.546875 40.53125 -57.015625 40.53125 -61.421875 C 40.53125 -64.222656 40.207031 -66.863281 39.5625 -69.34375 C 38.925781 -71.832031 37.828125 -73.84375 36.265625 -75.375 C 34.703125 -76.914062 32.492188 -77.6875 29.640625 -77.6875 Z M 29.640625 -77.6875 "/></g></g></g><g clip-path="url(#fa421114d6)"><g clip-path="url(#1dc4b111cb)"><g transform="matrix(1, 0, 0, 1, 111, 171)"><g clip-path="url(#360b5c0fa8)"><g clip-path="url(#578e39387c)"><g clip-path="url(#533f2f785f)"><path fill="#ffffff" d="M 0.429688 0.722656 L 152.625 0.722656 L 152.625 32.273438 L 0.429688 32.273438 Z M 0.429688 0.722656 " fill-opacity="1" fill-rule="nonzero"/></g></g></g></g></g></g><g clip-path="url(#4c44c8cc51)"><g clip-path="url(#fcc0d887ea)"><path stroke-linecap="butt" transform="matrix(0.75, 0, 0, 0.75, 111.429547, 171.723812)" fill="none" stroke-linejoin="miter" d="M 202.843938 2.998459 L 202.843938 39.060959 C 202.843938 39.857834 202.52623 40.623459 201.96373 41.185959 C 201.40123 41.748459 200.640813 42.060959 199.843938 42.060959 L 3.000188 42.060959 C 2.203313 42.060959 1.442896 41.748459 0.880396 41.185959 C 0.317896 40.623459 0.000187623 39.857834 0.000187623 39.060959 L 0.000187623 2.998459 C 0.000187623 2.206792 0.317896 1.441167 0.880396 0.878667 C 1.442896 0.316167 2.203313 -0.0015409 3.000188 -0.0015409 L 199.843938 -0.0015409 C 200.640813 -0.0015409 201.40123 0.316167 201.96373 0.878667 C 202.52623 1.441167 202.843938 2.206792 202.843938 2.998459 Z M 202.843938 2.998459 " stroke="#000000" stroke-width="2" stroke-opacity="1" stroke-miterlimit="4"/></g></g><g fill="#000000" fill-opacity="1"><g transform="translate(120.249078, 193.086199)"><g><path d="M 5.515625 -12.578125 C 5.484375 -11.703125 5.46875 -10.816406 5.46875 -9.921875 C 5.46875 -9.035156 5.46875 -8.140625 5.46875 -7.234375 L 5.46875 -6.484375 L 6.125 -6.484375 C 7.238281 -6.484375 8.054688 -6.769531 8.578125 -7.34375 C 9.097656 -7.914062 9.359375 -8.660156 9.359375 -9.578125 C 9.359375 -10.546875 9.097656 -11.285156 8.578125 -11.796875 C 8.054688 -12.316406 7.253906 -12.578125 6.171875 -12.578125 Z M 5.46875 -5.328125 C 5.46875 -4.671875 5.46875 -4 5.46875 -3.3125 C 5.46875 -2.625 5.484375 -1.941406 5.515625 -1.265625 L 7.421875 -1.046875 L 7.421875 0 L 0.671875 0 L 0.671875 -1.046875 L 2.375 -1.234375 C 2.394531 -2.097656 2.40625 -2.96875 2.40625 -3.84375 C 2.40625 -4.71875 2.40625 -5.601562 2.40625 -6.5 L 2.40625 -7.234375 C 2.40625 -8.117188 2.40625 -8.992188 2.40625 -9.859375 C 2.40625 -10.734375 2.394531 -11.613281 2.375 -12.5 L 0.671875 -12.6875 L 0.671875 -13.734375 L 6.328125 -13.734375 C 7.378906 -13.734375 8.273438 -13.632812 9.015625 -13.4375 C 9.753906 -13.238281 10.363281 -12.960938 10.84375 -12.609375 C 11.332031 -12.253906 11.6875 -11.820312 11.90625 -11.3125 C 12.132812 -10.8125 12.25 -10.253906 12.25 -9.640625 C 12.25 -9.097656 12.148438 -8.566406 11.953125 -8.046875 C 11.765625 -7.535156 11.425781 -7.078125 10.9375 -6.671875 C 10.457031 -6.265625 9.800781 -5.9375 8.96875 -5.6875 C 8.132812 -5.445312 7.070312 -5.328125 5.78125 -5.328125 Z M 5.46875 -5.328125 "/></g></g></g><g fill="#000000" fill-opacity="1"><g transform="translate(149.676574, 193.086199)"><g><path d="M 11.75 -4.0625 L 11.53125 0 L 0.671875 0 L 0.671875 -1.046875 L 2.375 -1.234375 C 2.394531 -2.097656 2.40625 -2.96875 2.40625 -3.84375 C 2.40625 -4.71875 2.40625 -5.601562 2.40625 -6.5 L 2.40625 -7.234375 C 2.40625 -8.117188 2.40625 -8.992188 2.40625 -9.859375 C 2.40625 -10.734375 2.394531 -11.613281 2.375 -12.5 L 0.671875 -12.6875 L 0.671875 -13.734375 L 7.3125 -13.734375 L 7.3125 -12.6875 L 5.515625 -12.5 C 5.484375 -11.613281 5.46875 -10.738281 5.46875 -9.875 C 5.46875 -9.007812 5.46875 -8.128906 5.46875 -7.234375 L 5.46875 -6.5 C 5.46875 -5.601562 5.46875 -4.710938 5.46875 -3.828125 C 5.46875 -2.941406 5.484375 -2.050781 5.515625 -1.15625 L 9.5 -1.15625 L 10.078125 -4.0625 Z M 11.75 -4.0625 "/></g></g></g><g fill="#000000" fill-opacity="1"><g transform="translate(178.601205, 193.086199)"><g><path d="M 8.078125 -5.4375 L 6.390625 -10.109375 L 4.65625 -5.4375 Z M 14.03125 -1.03125 L 14.03125 0 L 7.859375 0 L 7.859375 -1.03125 L 9.578125 -1.234375 L 8.5 -4.28125 L 4.234375 -4.28125 L 3.125 -1.296875 L 4.828125 -1.046875 L 4.828125 0 L 0.109375 0 L 0.109375 -1.046875 L 1.96875 -1.328125 L 6.625 -13.734375 L 7.890625 -13.734375 L 12.640625 -1.1875 Z M 14.03125 -1.03125 "/></g></g></g><g fill="#000000" fill-opacity="1"><g transform="translate(209.474467, 193.086199)"><g><path d="M 15.40625 -12.6875 L 13.46875 -12.40625 L 13.46875 0.203125 L 12.40625 0.203125 L 3.734375 -10.59375 L 3.734375 -1.328125 L 6.125 -1.046875 L 6.125 0 L 0.546875 0 L 0.546875 -1.046875 L 2.5 -1.328125 L 2.5 -12.140625 L 2.1875 -12.515625 L 0.75 -12.671875 L 0.75 -13.734375 L 4.890625 -13.734375 L 12.25 -4.453125 L 12.25 -12.40625 L 9.828125 -12.6875 L 9.828125 -13.734375 L 15.40625 -13.734375 Z M 15.40625 -12.6875 "/></g></g></g><g fill="#000000" fill-opacity="1"><g transform="translate(242.191602, 193.086199)"><g><path d="M 12.015625 -3.65625 L 11.875 0 L 0.671875 0 L 0.671875 -1.046875 L 2.375 -1.234375 C 2.394531 -2.097656 2.40625 -2.96875 2.40625 -3.84375 C 2.40625 -4.71875 2.40625 -5.601562 2.40625 -6.5 L 2.40625 -7.234375 C 2.40625 -8.117188 2.40625 -8.992188 2.40625 -9.859375 C 2.40625 -10.734375 2.394531 -11.613281 2.375 -12.5 L 0.671875 -12.6875 L 0.671875 -13.734375 L 11.453125 -13.734375 L 11.59375 -10.078125 L 10.015625 -10.078125 L 9.578125 -12.578125 L 5.515625 -12.578125 C 5.484375 -11.785156 5.46875 -10.984375 5.46875 -10.171875 C 5.46875 -9.359375 5.46875 -8.535156 5.46875 -7.703125 L 8.15625 -7.703125 L 8.421875 -9.5625 L 9.5625 -9.5625 L 9.5625 -4.703125 L 8.421875 -4.703125 L 8.171875 -6.546875 L 5.46875 -6.546875 C 5.46875 -5.585938 5.46875 -4.664062 5.46875 -3.78125 C 5.46875 -2.894531 5.484375 -2.007812 5.515625 -1.125 L 10 -1.125 L 10.4375 -3.65625 Z M 12.015625 -3.65625 "/></g></g></g></svg>