<svg xmlns="http://www.w3.org/2000/svg" xmlns:xlink="http://www.w3.org/1999/xlink" width="500" zoomAndPan="magnify" viewBox="0 0 375 374.999991" height="500" preserveAspectRatio="xMidYMid meet" version="1.0"><defs><g/><clipPath id="ca4d81fc02"><path d="M 18.464844 141.582031 L 356.527344 141.582031 L 356.527344 227.46875 L 18.464844 227.46875 Z M 18.464844 141.582031 " clip-rule="nonzero"/></clipPath><clipPath id="51d60658e2"><rect x="0" width="339" y="0" height="104"/></clipPath><clipPath id="90a34ae405"><path d="M 116.257812 175.226562 L 258.792969 175.226562 L 258.792969 204.773438 L 116.257812 204.773438 Z M 116.257812 175.226562 " clip-rule="nonzero"/></clipPath><clipPath id="a9db410e0e"><path d="M 258.742188 177.476562 L 258.742188 202.523438 C 258.742188 203.765625 257.734375 204.773438 256.492188 204.773438 L 118.507812 204.773438 C 117.265625 204.773438 116.257812 203.765625 116.257812 202.523438 L 116.257812 177.476562 C 116.257812 176.234375 117.265625 175.226562 118.507812 175.226562 L 256.492188 175.226562 C 257.734375 175.226562 258.742188 176.234375 258.742188 177.476562 Z M 258.742188 177.476562 " clip-rule="nonzero"/></clipPath><clipPath id="c14d5c0c39"><path d="M 0.257812 0.226562 L 142.792969 0.226562 L 142.792969 29.773438 L 0.257812 29.773438 Z M 0.257812 0.226562 " clip-rule="nonzero"/></clipPath><clipPath id="36d79b1a54"><path d="M 142.742188 2.476562 L 142.742188 27.523438 C 142.742188 28.765625 141.734375 29.773438 140.492188 29.773438 L 2.507812 29.773438 C 1.265625 29.773438 0.257812 28.765625 0.257812 27.523438 L 0.257812 2.476562 C 0.257812 1.234375 1.265625 0.226562 2.507812 0.226562 L 140.492188 0.226562 C 141.734375 0.226562 142.742188 1.234375 142.742188 2.476562 Z M 142.742188 2.476562 " clip-rule="nonzero"/></clipPath><clipPath id="32bdff5426"><rect x="0" width="143" y="0" height="30"/></clipPath><clipPath id="9ff265cdc6"><path d="M 116.261719 175.226562 L 258.757812 175.226562 L 258.757812 204.476562 L 116.261719 204.476562 Z M 116.261719 175.226562 " clip-rule="nonzero"/></clipPath><clipPath id="97d010406b"><path d="M 258.730469 177.476562 L 258.730469 202.519531 C 258.730469 203.761719 257.722656 204.769531 256.480469 204.769531 L 118.511719 204.769531 C 117.269531 204.769531 116.261719 203.761719 116.261719 202.519531 L 116.261719 177.476562 C 116.261719 176.234375 117.269531 175.226562 118.511719 175.226562 L 256.480469 175.226562 C 257.722656 175.226562 258.730469 176.234375 258.730469 177.476562 Z M 258.730469 177.476562 " clip-rule="nonzero"/></clipPath><clipPath id="856f6ff187"><rect x="0" width="143" y="0" height="26"/></clipPath></defs><rect x="-37.5" width="450" fill="#ffffff" y="-37.499999" height="449.999989" fill-opacity="1"/><rect x="-37.5" width="450" fill="#ffffff" y="-37.499999" height="449.999989" fill-opacity="1"/><g clip-path="url(#ca4d81fc02)"><path stroke-linecap="butt" transform="matrix(0.75, 0, 0, 0.75, 18.464362, 141.583688)" fill="none" stroke-linejoin="miter" d="M 0.000641683 -0.00220834 L 450.750642 -0.00220834 L 450.750642 114.513417 L 0.000641683 114.513417 Z M 0.000641683 -0.00220834 " stroke="#000000" stroke-width="2" stroke-opacity="1" stroke-miterlimit="4"/></g><g transform="matrix(1, 0, 0, 1, 18, 143)"><g clip-path="url(#51d60658e2)"><g fill="#231f20" fill-opacity="1"><g transform="translate(0.479923, 77.530583)"><g><path d="M 0 -73.59375 L 32.40625 -73.59375 L 32.40625 -72.953125 C 31.03125 -71.921875 30.09375 -70.394531 29.59375 -68.375 C 29.101562 -66.351562 28.910156 -64.0625 29.015625 -61.5 C 29.128906 -58.9375 29.421875 -56.320312 29.890625 -53.65625 C 30.367188 -50.988281 30.894531 -48.476562 31.46875 -46.125 C 32.050781 -43.78125 32.535156 -41.8125 32.921875 -40.21875 C 33.703125 -37.207031 34.378906 -34.53125 34.953125 -32.1875 C 35.535156 -29.84375 36.097656 -27.625 36.640625 -25.53125 C 37.179688 -23.445312 37.71875 -21.304688 38.25 -19.109375 C 38.789062 -16.910156 39.394531 -14.476562 40.0625 -11.8125 C 40.726562 -9.144531 41.515625 -6.066406 42.421875 -2.578125 C 43.023438 -5.160156 43.753906 -8.195312 44.609375 -11.6875 C 45.472656 -15.175781 46.398438 -18.953125 47.390625 -23.015625 C 48.378906 -27.085938 49.347656 -31.253906 50.296875 -35.515625 C 49.515625 -38.523438 48.710938 -41.65625 47.890625 -44.90625 C 47.078125 -48.15625 46.203125 -51.648438 45.265625 -55.390625 C 44.828125 -57.117188 44.328125 -58.992188 43.765625 -61.015625 C 43.210938 -63.035156 42.601562 -64.945312 41.9375 -66.75 C 41.269531 -68.5625 40.554688 -70.046875 39.796875 -71.203125 C 39.046875 -72.367188 38.265625 -72.953125 37.453125 -72.953125 L 37.453125 -73.59375 L 69.859375 -73.59375 L 69.859375 -72.953125 C 68.484375 -71.921875 67.546875 -70.394531 67.046875 -68.375 C 66.554688 -66.351562 66.363281 -64.0625 66.46875 -61.5 C 66.570312 -58.9375 66.859375 -56.320312 67.328125 -53.65625 C 67.804688 -50.988281 68.335938 -48.476562 68.921875 -46.125 C 69.503906 -43.78125 69.988281 -41.8125 70.375 -40.21875 C 71.144531 -37.207031 71.820312 -34.515625 72.40625 -32.140625 C 72.988281 -29.773438 73.535156 -27.523438 74.046875 -25.390625 C 74.566406 -23.265625 75.09375 -21.09375 75.625 -18.875 C 76.164062 -16.664062 76.769531 -14.210938 77.4375 -11.515625 C 78.101562 -8.828125 78.890625 -5.742188 79.796875 -2.265625 C 80.359375 -4.671875 80.992188 -7.507812 81.703125 -10.78125 C 82.410156 -14.050781 83.109375 -17.585938 83.796875 -21.390625 C 84.484375 -25.203125 85.039062 -29.117188 85.46875 -33.140625 C 85.90625 -37.171875 86.125 -41.15625 86.125 -45.09375 C 86.125 -49.03125 85.8125 -52.773438 85.1875 -56.328125 C 84.5625 -59.878906 83.515625 -63.085938 82.046875 -65.953125 C 80.585938 -68.816406 78.613281 -71.148438 76.125 -72.953125 L 76.125 -73.59375 L 102.328125 -73.59375 L 102.328125 -72.953125 C 101.515625 -72.953125 100.726562 -72.367188 99.96875 -71.203125 C 99.21875 -70.046875 98.507812 -68.5625 97.84375 -66.75 C 97.175781 -64.945312 96.5625 -63.035156 96 -61.015625 C 95.445312 -58.992188 94.953125 -57.117188 94.515625 -55.390625 C 93.441406 -51.085938 92.429688 -47.082031 91.484375 -43.375 C 90.535156 -39.675781 89.640625 -36.140625 88.796875 -32.765625 C 87.960938 -29.390625 87.125 -26.007812 86.28125 -22.625 C 85.445312 -19.25 84.566406 -15.71875 83.640625 -12.03125 C 82.710938 -8.351562 81.691406 -4.34375 80.578125 0 L 59.203125 0 C 58.171875 -4.21875 57.191406 -8.125 56.265625 -11.71875 C 55.335938 -15.3125 54.460938 -18.753906 53.640625 -22.046875 C 52.828125 -25.335938 52.015625 -28.640625 51.203125 -31.953125 C 50.378906 -28.640625 49.546875 -25.335938 48.703125 -22.046875 C 47.867188 -18.753906 47 -15.3125 46.09375 -11.71875 C 45.1875 -8.125 44.195312 -4.21875 43.125 0 L 21.75 0 C 20.675781 -4.300781 19.664062 -8.300781 18.71875 -12 C 17.769531 -15.707031 16.875 -19.25 16.03125 -22.625 C 15.195312 -26.007812 14.359375 -29.390625 13.515625 -32.765625 C 12.679688 -36.140625 11.800781 -39.675781 10.875 -43.375 C 9.945312 -47.082031 8.925781 -51.085938 7.8125 -55.390625 C 7.382812 -57.117188 6.890625 -58.992188 6.328125 -61.015625 C 5.765625 -63.035156 5.148438 -64.945312 4.484375 -66.75 C 3.816406 -68.5625 3.109375 -70.046875 2.359375 -71.203125 C 1.609375 -72.367188 0.820312 -72.953125 0 -72.953125 Z M 0 -73.59375 "/></g></g></g><g fill="#231f20" fill-opacity="1"><g transform="translate(100.871489, 77.530583)"><g><path d="M 0 0 L 0 -0.640625 C 0.820312 -0.640625 1.609375 -1.21875 2.359375 -2.375 C 3.109375 -3.539062 3.816406 -5.03125 4.484375 -6.84375 C 5.148438 -8.65625 5.765625 -10.570312 6.328125 -12.59375 C 6.890625 -14.613281 7.382812 -16.484375 7.8125 -18.203125 C 8.925781 -22.554688 9.945312 -26.570312 10.875 -30.25 C 11.800781 -33.925781 12.679688 -37.453125 13.515625 -40.828125 C 14.359375 -44.210938 15.195312 -47.59375 16.03125 -50.96875 C 16.875 -54.351562 17.769531 -57.894531 18.71875 -61.59375 C 19.664062 -65.289062 20.675781 -69.289062 21.75 -73.59375 L 43.125 -73.59375 C 44.25 -69.289062 45.269531 -65.289062 46.1875 -61.59375 C 47.113281 -57.894531 48.007812 -54.351562 48.875 -50.96875 C 49.738281 -47.59375 50.597656 -44.210938 51.453125 -40.828125 C 52.316406 -37.453125 53.195312 -33.925781 54.09375 -30.25 C 55 -26.570312 55.992188 -22.554688 57.078125 -18.203125 C 57.503906 -16.484375 57.992188 -14.613281 58.546875 -12.59375 C 59.109375 -10.570312 59.722656 -8.65625 60.390625 -6.84375 C 61.066406 -5.03125 61.78125 -3.539062 62.53125 -2.375 C 63.28125 -1.21875 64.066406 -0.640625 64.890625 -0.640625 L 64.890625 0 L 32.46875 0 L 32.46875 -0.640625 C 34.0625 -1.847656 35.082031 -3.59375 35.53125 -5.875 C 35.988281 -8.15625 36.097656 -10.75 35.859375 -13.65625 C 35.628906 -16.5625 35.191406 -19.519531 34.546875 -22.53125 L 16.328125 -22.53125 C 16.765625 -17.539062 17.765625 -13.191406 19.328125 -9.484375 C 20.898438 -5.785156 23.195312 -2.835938 26.21875 -0.640625 L 26.21875 0 Z M 22.34375 -71.40625 C 20.1875 -61.976562 18.535156 -53.257812 17.390625 -45.25 C 16.253906 -37.25 15.878906 -30.109375 16.265625 -23.828125 L 34.28125 -23.828125 C 33.894531 -25.503906 33.492188 -27.148438 33.078125 -28.765625 C 32.671875 -30.378906 32.296875 -31.914062 31.953125 -33.375 C 31.179688 -36.382812 30.492188 -39.070312 29.890625 -41.4375 C 29.285156 -43.8125 28.710938 -46.0625 28.171875 -48.1875 C 27.640625 -50.320312 27.09375 -52.507812 26.53125 -54.75 C 25.976562 -56.988281 25.363281 -59.441406 24.6875 -62.109375 C 24.019531 -64.773438 23.238281 -67.875 22.34375 -71.40625 Z M 22.34375 -71.40625 "/></g></g></g><g fill="#231f20" fill-opacity="1"><g transform="translate(163.817957, 77.530583)"><g><path d="M 1.609375 -48.75 L 1.609375 -73.59375 L 57.53125 -73.59375 L 57.53125 -48.75 L 56.875 -48.75 C 56.875 -50.59375 56.582031 -52.578125 56 -54.703125 C 55.425781 -56.835938 54.609375 -58.945312 53.546875 -61.03125 C 52.492188 -63.125 51.269531 -65.019531 49.875 -66.71875 C 48.476562 -68.425781 46.960938 -69.785156 45.328125 -70.796875 C 43.691406 -71.804688 41.988281 -72.3125 40.21875 -72.3125 L 39.578125 -72.3125 L 39.578125 -9.03125 C 39.578125 -6.664062 39.898438 -4.773438 40.546875 -3.359375 C 41.191406 -1.941406 42.265625 -1.035156 43.765625 -0.640625 L 43.765625 0 L 14.71875 0 L 14.71875 -0.640625 C 16.226562 -1.035156 17.304688 -1.941406 17.953125 -3.359375 C 18.597656 -4.773438 18.921875 -6.664062 18.921875 -9.03125 L 18.921875 -72.3125 C 17.191406 -72.3125 15.5 -71.804688 13.84375 -70.796875 C 12.1875 -69.785156 10.660156 -68.425781 9.265625 -66.71875 C 7.867188 -65.019531 6.640625 -63.125 5.578125 -61.03125 C 4.523438 -58.945312 3.707031 -56.835938 3.125 -54.703125 C 2.550781 -52.578125 2.265625 -50.59375 2.265625 -48.75 Z M 1.609375 -48.75 "/></g></g></g><g fill="#231f20" fill-opacity="1"><g transform="translate(221.018508, 77.530583)"><g><path d="M 53.390625 0 L 1.609375 0 L 1.609375 -0.640625 C 3.117188 -1.035156 4.195312 -1.941406 4.84375 -3.359375 C 5.488281 -4.773438 5.8125 -6.664062 5.8125 -9.03125 L 5.8125 -64.5625 C 5.8125 -66.96875 5.488281 -68.867188 4.84375 -70.265625 C 4.195312 -71.671875 3.117188 -72.566406 1.609375 -72.953125 L 1.609375 -73.59375 L 53.390625 -73.59375 L 53.390625 -51.390625 L 52.75 -51.390625 C 52.75 -52.804688 52.390625 -54.421875 51.671875 -56.234375 C 50.960938 -58.046875 49.941406 -59.894531 48.609375 -61.78125 C 47.273438 -63.675781 45.703125 -65.410156 43.890625 -66.984375 C 42.085938 -68.554688 40.066406 -69.835938 37.828125 -70.828125 C 35.585938 -71.816406 33.203125 -72.3125 30.671875 -72.3125 L 26.46875 -72.3125 L 26.46875 -39.96875 L 28.984375 -39.96875 C 30.578125 -39.96875 32.203125 -40.300781 33.859375 -40.96875 C 35.515625 -41.632812 37.0625 -42.492188 38.5 -43.546875 C 39.945312 -44.597656 41.15625 -45.769531 42.125 -47.0625 C 43.09375 -48.351562 43.6875 -49.601562 43.90625 -50.8125 L 44.546875 -50.8125 L 44.546875 -27.828125 L 43.90625 -27.828125 C 43.6875 -29.078125 43.09375 -30.335938 42.125 -31.609375 C 41.15625 -32.878906 39.945312 -34.039062 38.5 -35.09375 C 37.0625 -36.144531 35.515625 -37.003906 33.859375 -37.671875 C 32.203125 -38.335938 30.578125 -38.671875 28.984375 -38.671875 L 26.46875 -38.671875 L 26.46875 -1.296875 L 30.671875 -1.296875 C 33.203125 -1.296875 35.585938 -1.789062 37.828125 -2.78125 C 40.066406 -3.769531 42.085938 -5.046875 43.890625 -6.609375 C 45.703125 -8.179688 47.273438 -9.914062 48.609375 -11.8125 C 49.941406 -13.707031 50.960938 -15.554688 51.671875 -17.359375 C 52.390625 -19.171875 52.75 -20.785156 52.75 -22.203125 L 53.390625 -22.203125 Z M 53.390625 0 "/></g></g></g><g fill="#231f20" fill-opacity="1"><g transform="translate(274.087217, 77.530583)"><g><path d="M 1.609375 -72.953125 L 1.609375 -73.59375 L 38.859375 -73.59375 C 43.253906 -73.59375 46.914062 -72.828125 49.84375 -71.296875 C 52.769531 -69.773438 54.960938 -67.742188 56.421875 -65.203125 C 57.890625 -62.671875 58.625 -59.875 58.625 -56.8125 C 58.625 -53.625 58.03125 -50.972656 56.84375 -48.859375 C 55.664062 -46.753906 54.019531 -45.097656 51.90625 -43.890625 C 49.800781 -42.691406 47.359375 -41.832031 44.578125 -41.3125 C 41.804688 -40.800781 38.804688 -40.546875 35.578125 -40.546875 C 39.273438 -39.773438 42.296875 -38.601562 44.640625 -37.03125 C 46.984375 -35.457031 48.863281 -33.625 50.28125 -31.53125 C 51.707031 -29.445312 52.816406 -27.234375 53.609375 -24.890625 C 54.410156 -22.546875 55.066406 -20.195312 55.578125 -17.84375 C 56.097656 -15.5 56.648438 -13.304688 57.234375 -11.265625 C 57.816406 -9.222656 58.613281 -7.445312 59.625 -5.9375 C 60.632812 -4.4375 62.019531 -3.363281 63.78125 -2.71875 C 63.78125 -2.71875 63.640625 -2.519531 63.359375 -2.125 C 63.085938 -1.738281 62.59375 -1.273438 61.875 -0.734375 C 61.164062 -0.203125 60.164062 0.253906 58.875 0.640625 C 57.582031 1.035156 55.925781 1.234375 53.90625 1.234375 C 49.863281 1.234375 46.5625 0.648438 44 -0.515625 C 41.4375 -1.679688 39.457031 -3.242188 38.0625 -5.203125 C 36.664062 -7.160156 35.664062 -9.351562 35.0625 -11.78125 C 34.457031 -14.21875 34.066406 -16.75 33.890625 -19.375 C 33.722656 -22 33.59375 -24.523438 33.5 -26.953125 C 33.414062 -29.390625 33.203125 -31.585938 32.859375 -33.546875 C 32.515625 -35.503906 31.859375 -37.0625 30.890625 -38.21875 C 29.921875 -39.382812 28.445312 -39.96875 26.46875 -39.96875 L 26.46875 -9.03125 C 26.46875 -6.664062 26.789062 -4.773438 27.4375 -3.359375 C 28.082031 -1.941406 29.160156 -1.035156 30.671875 -0.640625 L 30.671875 0 L 1.609375 0 L 1.609375 -0.640625 C 3.117188 -1.035156 4.195312 -1.941406 4.84375 -3.359375 C 5.488281 -4.773438 5.8125 -6.664062 5.8125 -9.03125 L 5.8125 -64.5625 C 5.8125 -66.96875 5.488281 -68.867188 4.84375 -70.265625 C 4.195312 -71.671875 3.117188 -72.566406 1.609375 -72.953125 Z M 27.765625 -72.765625 L 26.46875 -72.765625 L 26.46875 -41.25 L 28.796875 -41.25 C 30.429688 -41.25 31.945312 -41.742188 33.34375 -42.734375 C 34.738281 -43.722656 35.859375 -45.398438 36.703125 -47.765625 C 37.546875 -50.140625 37.96875 -53.394531 37.96875 -57.53125 C 37.96875 -60.15625 37.664062 -62.628906 37.0625 -64.953125 C 36.457031 -67.273438 35.421875 -69.15625 33.953125 -70.59375 C 32.492188 -72.039062 30.429688 -72.765625 27.765625 -72.765625 Z M 27.765625 -72.765625 "/></g></g></g></g></g><g clip-path="url(#90a34ae405)"><g clip-path="url(#a9db410e0e)"><g transform="matrix(1, 0, 0, 1, 116, 175)"><g clip-path="url(#32bdff5426)"><g clip-path="url(#c14d5c0c39)"><g clip-path="url(#36d79b1a54)"><path fill="#ffffff" d="M 0.257812 0.226562 L 142.792969 0.226562 L 142.792969 29.773438 L 0.257812 29.773438 Z M 0.257812 0.226562 " fill-opacity="1" fill-rule="nonzero"/></g></g></g></g></g></g><g clip-path="url(#9ff265cdc6)"><g clip-path="url(#97d010406b)"><path stroke-linecap="butt" transform="matrix(0.75, 0, 0, 0.75, 116.261987, 175.227908)" fill="none" stroke-linejoin="miter" d="M 189.958 2.998207 L 189.958 36.388836 C 189.958 38.045086 188.61425 39.388837 186.958 39.388837 L 2.999642 39.388837 C 1.343392 39.388837 -0.000358021 38.045086 -0.000358021 36.388836 L -0.000358021 2.998207 C -0.000358021 1.341957 1.343392 -0.00179359 2.999642 -0.00179359 L 186.958 -0.00179359 C 188.61425 -0.00179359 189.958 1.341957 189.958 2.998207 Z M 189.958 2.998207 " stroke="#000000" stroke-width="2" stroke-opacity="1" stroke-miterlimit="4"/></g></g><g transform="matrix(1, 0, 0, 1, 124, 177)"><g clip-path="url(#856f6ff187)"><g fill="#231f20" fill-opacity="1"><g transform="translate(0.518262, 18.225369)"><g><path d="M 5.15625 -11.78125 C 5.132812 -10.945312 5.125 -10.113281 5.125 -9.28125 C 5.125 -8.457031 5.125 -7.617188 5.125 -6.765625 L 5.125 -6.0625 L 5.734375 -6.0625 C 6.773438 -6.0625 7.535156 -6.328125 8.015625 -6.859375 C 8.503906 -7.398438 8.75 -8.101562 8.75 -8.96875 C 8.75 -9.875 8.503906 -10.566406 8.015625 -11.046875 C 7.535156 -11.535156 6.785156 -11.78125 5.765625 -11.78125 Z M 5.125 -4.984375 C 5.125 -4.367188 5.125 -3.738281 5.125 -3.09375 C 5.125 -2.457031 5.132812 -1.816406 5.15625 -1.171875 L 6.953125 -0.984375 L 6.953125 0 L 0.625 0 L 0.625 -0.984375 L 2.21875 -1.15625 C 2.238281 -1.96875 2.25 -2.78125 2.25 -3.59375 C 2.25 -4.414062 2.25 -5.242188 2.25 -6.078125 L 2.25 -6.765625 C 2.25 -7.585938 2.25 -8.40625 2.25 -9.21875 C 2.25 -10.039062 2.238281 -10.867188 2.21875 -11.703125 L 0.625 -11.875 L 0.625 -12.859375 L 5.921875 -12.859375 C 6.910156 -12.859375 7.75 -12.765625 8.4375 -12.578125 C 9.132812 -12.398438 9.707031 -12.140625 10.15625 -11.796875 C 10.601562 -11.460938 10.929688 -11.0625 11.140625 -10.59375 C 11.359375 -10.125 11.46875 -9.601562 11.46875 -9.03125 C 11.46875 -8.519531 11.378906 -8.019531 11.203125 -7.53125 C 11.023438 -7.050781 10.707031 -6.617188 10.25 -6.234375 C 9.789062 -5.859375 9.171875 -5.554688 8.390625 -5.328125 C 7.609375 -5.097656 6.617188 -4.984375 5.421875 -4.984375 Z M 5.125 -4.984375 "/></g></g></g><g fill="#231f20" fill-opacity="1"><g transform="translate(28.077654, 18.225369)"><g><path d="M 10.984375 -3.8125 L 10.796875 0 L 0.625 0 L 0.625 -0.984375 L 2.21875 -1.15625 C 2.238281 -1.96875 2.25 -2.78125 2.25 -3.59375 C 2.25 -4.414062 2.25 -5.242188 2.25 -6.078125 L 2.25 -6.765625 C 2.25 -7.585938 2.25 -8.40625 2.25 -9.21875 C 2.25 -10.039062 2.238281 -10.867188 2.21875 -11.703125 L 0.625 -11.875 L 0.625 -12.859375 L 6.84375 -12.859375 L 6.84375 -11.875 L 5.15625 -11.703125 C 5.132812 -10.867188 5.125 -10.046875 5.125 -9.234375 C 5.125 -8.429688 5.125 -7.609375 5.125 -6.765625 L 5.125 -6.078125 C 5.125 -5.242188 5.125 -4.410156 5.125 -3.578125 C 5.125 -2.742188 5.132812 -1.910156 5.15625 -1.078125 L 8.890625 -1.078125 L 9.4375 -3.8125 Z M 10.984375 -3.8125 "/></g></g></g><g fill="#231f20" fill-opacity="1"><g transform="translate(55.166103, 18.225369)"><g><path d="M 7.5625 -5.078125 L 5.984375 -9.453125 L 4.359375 -5.078125 Z M 13.125 -0.96875 L 13.125 0 L 7.359375 0 L 7.359375 -0.96875 L 8.96875 -1.15625 L 7.953125 -4 L 3.96875 -4 L 2.921875 -1.21875 L 4.515625 -0.984375 L 4.515625 0 L 0.09375 0 L 0.09375 -0.984375 L 1.84375 -1.234375 L 6.203125 -12.859375 L 7.375 -12.859375 L 11.828125 -1.125 Z M 13.125 -0.96875 "/></g></g></g><g fill="#231f20" fill-opacity="1"><g transform="translate(84.079481, 18.225369)"><g><path d="M 14.421875 -11.875 L 12.59375 -11.625 L 12.59375 0.203125 L 11.625 0.203125 L 3.5 -9.90625 L 3.5 -1.234375 L 5.734375 -0.984375 L 5.734375 0 L 0.515625 0 L 0.515625 -0.984375 L 2.328125 -1.234375 L 2.328125 -11.359375 L 2.046875 -11.71875 L 0.703125 -11.859375 L 0.703125 -12.859375 L 4.578125 -12.859375 L 11.46875 -4.15625 L 11.46875 -11.625 L 9.203125 -11.875 L 9.203125 -12.859375 L 14.421875 -12.859375 Z M 14.421875 -11.875 "/></g></g></g><g fill="#231f20" fill-opacity="1"><g transform="translate(114.719679, 18.225369)"><g><path d="M 11.25 -3.421875 L 11.109375 0 L 0.625 0 L 0.625 -0.984375 L 2.21875 -1.15625 C 2.238281 -1.96875 2.25 -2.78125 2.25 -3.59375 C 2.25 -4.414062 2.25 -5.242188 2.25 -6.078125 L 2.25 -6.765625 C 2.25 -7.585938 2.25 -8.40625 2.25 -9.21875 C 2.25 -10.039062 2.238281 -10.867188 2.21875 -11.703125 L 0.625 -11.875 L 0.625 -12.859375 L 10.71875 -12.859375 L 10.859375 -9.4375 L 9.375 -9.4375 L 8.96875 -11.78125 L 5.15625 -11.78125 C 5.132812 -11.03125 5.125 -10.273438 5.125 -9.515625 C 5.125 -8.753906 5.125 -7.984375 5.125 -7.203125 L 7.640625 -7.203125 L 7.890625 -8.953125 L 8.953125 -8.953125 L 8.953125 -4.390625 L 7.890625 -4.390625 L 7.65625 -6.125 L 5.125 -6.125 C 5.125 -5.226562 5.125 -4.363281 5.125 -3.53125 C 5.125 -2.707031 5.132812 -1.882812 5.15625 -1.0625 L 9.359375 -1.0625 L 9.765625 -3.421875 Z M 11.25 -3.421875 "/></g></g></g></g></g></svg>